# xmcd CD database file
#
# Track frame offsets:
#	150
#	3357
#	33812
#	54765
#	81770
#	122592
#	138820
#
# Disc length: 2152 seconds
#
# Revision: 11
# Processed by: cddbd v1.5.2PL0 Copyright (c) Steve Scherf et al.
# Submitted via: CDex 1.51
#
DISCID=43086607
DTITLE=Gene Krupa and Buddy Rich - Drum Battle At JATP
DYEAR=1952
DGENRE=Jazz
TTITLE0=Introduction By Norman Granz
TTITLE1=Idaho
TTITLE2=Sophisticated Lady
TTITLE3=Flying Home
TTITLE4=Drum Boogie
TTITLE5=The Drum Battle
TTITLE6=Perdido
EXTD=YEAR: 1952
EXTT0=
EXTT1=
EXTT2=
EXTT3=
EXTT4=
EXTT5=
EXTT6=
PLAYORDER=
